<?xml version="1.0" encoding="UTF-8"?>
<svg version="1.1" xmlns="http://www.w3.org/2000/svg" width="247" height="247">
<path d="M0 0 C81.51 0 163.02 0 247 0 C247 81.51 247 163.02 247 247 C165.49 247 83.98 247 0 247 C0 165.49 0 83.98 0 0 Z " fill="#FEFEFE" transform="translate(0,0)"/>
<path d="M0 0 C3.82924512 0.840566 5.15949878 2.49441772 7.5625 5.5625 C8.23827226 8.58573018 8.17265494 11.47816174 8.0625 14.5625 C8.06636719 15.75359375 8.06636719 15.75359375 8.0703125 16.96875 C7.98548998 22.05810147 7.32524001 25.79975999 3.5625 29.5625 C-2.64939376 30.14852771 -2.64939376 30.14852771 -5.875 27.75 C-7.4375 25.5625 -7.4375 25.5625 -7.4375 22.5625 C-10.61984105 24.31704385 -10.61984105 24.31704385 -13.4375 26.5625 C-13.78187008 32.16637442 -13.83772917 37.7726457 -13.89746094 43.38598633 C-13.92383192 45.27231563 -13.96448931 47.15850772 -14.02050781 49.04418945 C-14.42115813 62.69888341 -13.59863356 73.46914332 -4.16259766 84.13354492 C-2.04040399 86.20911052 0.11160738 87.89219989 2.5625 89.5625 C3.1915625 90.01367188 3.820625 90.46484375 4.46875 90.9296875 C12.80068579 95.72385691 25.28044099 94.9647675 34.28515625 92.57421875 C44.04158006 88.66923128 50.05280942 82.90710345 54.57421875 73.4453125 C57.24777649 66.74185552 57.71678443 59.93938537 57.6953125 52.765625 C57.69674759 51.69245026 57.69674759 51.69245026 57.69821167 50.59759521 C57.69888739 49.09842846 57.69707586 47.59925867 57.69287109 46.10009766 C57.68748227 43.80494682 57.69285287 41.50998884 57.69921875 39.21484375 C57.69855848 37.75260374 57.69727838 36.29036384 57.6953125 34.828125 C57.69834885 33.80153778 57.69834885 33.80153778 57.70144653 32.75421143 C57.686555 29.74079358 57.52391477 27.4467443 56.5625 24.5625 C53.55402582 23.33729736 53.55402582 23.33729736 50.5625 22.5625 C50.459375 23.34625 50.35625 24.13 50.25 24.9375 C49.5625 27.5625 49.5625 27.5625 46.5625 29.5625 C43.18257021 29.9939804 41.3104489 30.03588538 38.40234375 28.1953125 C35.51374578 24.06173493 35.98240892 19.98142732 36.0625 15.0625 C36.03929688 13.63744141 36.03929688 13.63744141 36.015625 12.18359375 C36.05429507 5.30998933 36.05429507 5.30998933 38.37109375 1.90234375 C40.5625 0.5625 40.5625 0.5625 44.125 0.625 C48.90396341 1.92835366 48.90396341 1.92835366 50.5625 4.5625 C50.5625 5.8825 50.5625 7.2025 50.5625 8.5625 C51.50609375 8.54896484 51.50609375 8.54896484 52.46875 8.53515625 C58.71880038 8.75164896 62.1484032 10.10294439 66.7734375 14.28515625 C71.69172051 20.54576541 73.16017911 26.12425207 73.0234375 33.99609375 C73.02252106 34.87346695 73.02160461 35.75084015 73.0206604 36.65480042 C73.01465272 38.49949596 72.99899272 40.34418305 72.97412109 42.1887207 C72.93764569 44.9888162 72.93310225 47.78758229 72.93359375 50.58789062 C72.92375883 52.39063626 72.91210019 54.19337306 72.8984375 55.99609375 C72.89621185 56.8213707 72.89398621 57.64664764 72.89169312 58.49693298 C72.63140365 74.70113361 66.47122724 87.05329726 54.9375 98.25 C47.84796136 104.45063624 39.4359544 107.70652291 30.5625 110.5625 C33.81673189 120.50598633 38.52128015 128.03357559 47.5625 133.5625 C48.19414062 133.97628906 48.82578125 134.39007813 49.4765625 134.81640625 C57.41317347 139.21371773 67.94429992 138.84789796 76.6015625 136.8671875 C87.64273267 132.79938796 94.31420298 125.57444885 99.1875 115.0546875 C101.1895556 109.53208718 101.12826464 103.87797224 101.25 98.0625 C101.28416016 96.95390625 101.31832031 95.8453125 101.35351562 94.703125 C101.43538667 91.98968457 101.50473404 89.27654253 101.5625 86.5625 C100.79164063 86.28148437 100.02078125 86.00046875 99.2265625 85.7109375 C94.59277695 83.71338185 91.27114841 79.76090504 88.5625 75.5625 C86.7564218 69.8262939 86.32155264 62.83068464 88.46875 57.17578125 C91.57598319 51.94726386 95.56277285 48.31234084 100.8125 45.25 C107.76485344 43.51191164 114.09532299 44.02014351 120.51953125 47.2265625 C125.55910889 50.52204157 128.68273416 54.88067383 130.5625 60.5625 C131.48375374 67.72899709 130.73580558 73.60063488 126.5625 79.5625 C123.45580441 83.22680761 121.00991687 84.9142086 116.5625 86.5625 C116.58606567 87.46790527 116.58606567 87.46790527 116.61010742 88.39160156 C117.04772338 107.76487848 115.88602567 123.56432091 101.94921875 138.23828125 C95.46436244 144.55332136 89.20638796 148.77372269 80.5625 151.5625 C79.47582031 151.91957031 78.38914062 152.27664062 77.26953125 152.64453125 C63.9267622 155.94858892 51.04706181 153.41855629 39.25 146.6875 C28.67332237 139.89544823 20.42452053 130.78515839 16.5625 118.5625 C16.01775659 115.53409597 15.75803533 112.6421814 15.5625 109.5625 C14.593125 109.459375 13.62375 109.35625 12.625 109.25 C0.0223049 107.35580735 -10.19089314 100.97653385 -18.4296875 91.3203125 C-21.77736433 86.72214161 -24.19026792 81.77165764 -26.4375 76.5625 C-26.79972656 75.74394531 -27.16195312 74.92539063 -27.53515625 74.08203125 C-30.42690553 66.00766638 -29.73173416 57.02737062 -29.78759766 48.56933594 C-29.8041357 46.73847727 -29.83139747 44.9076826 -29.86962891 43.07714844 C-30.30958499 21.84448548 -30.30958499 21.84448548 -22.9230957 13.94238281 C-17.77561127 9.35421344 -14.27317808 8.2995893 -7.4375 8.5625 C-7.355 7.985 -7.2725 7.4075 -7.1875 6.8125 C-5.92407946 3.02223837 -3.92072172 0.90478194 0 0 Z " fill="#2965EB" transform="translate(91.4375,54.4375)"/>
<path d="M0 0 C1.9375 1 1.9375 1 3 3 C3.46000079 5.76000474 3.50420748 8.24404774 3 11 C1.4375 13.0625 1.4375 13.0625 -1 14 C-4.45113452 13.87890756 -6.96862779 13.63213135 -9.9375 11.8125 C-11.56034621 9.04411529 -11.44922076 7.14454533 -11 4 C-8.05323917 -0.47907646 -5.13567732 -0.65363166 0 0 Z " fill="#F5F8FE" transform="translate(204,114)"/>
</svg>
