<?xml version="1.0" encoding="UTF-8"?>
<svg version="1.1" xmlns="http://www.w3.org/2000/svg" width="247" height="247">
<path d="M0 0 C1.10472656 0.26683594 2.20945313 0.53367188 3.34765625 0.80859375 C12.49380456 3.30905957 20.68627626 7.5417277 29 12 C30.06476563 12.556875 31.12953125 13.11375 32.2265625 13.6875 C40.37331204 18.15853933 47.14395155 23.79432769 54 30 C55.11181641 31.00353516 55.11181641 31.00353516 56.24609375 32.02734375 C76.47593721 51.28029336 90.68650897 80.34079116 92.17700195 108.32299805 C92.87590903 147.54254484 84.24908279 179.22332312 56.67578125 208.25390625 C34.55816271 230.95271769 4.07244386 243.67915972 -27.47045898 244.4050293 C-63.20782532 244.71205531 -94.34443827 233.05910317 -120.25 208.125 C-146.41512789 180.88928586 -155.95763999 148.0273735 -155.23699951 110.83998108 C-154.30622675 78.09658448 -137.32932001 50.4012822 -114.79296875 27.78515625 C-98.0271655 12.07693613 -75.35419184 2.08093967 -53 -2 C-51.99195312 -2.18691406 -50.98390625 -2.37382813 -49.9453125 -2.56640625 C-33.47885251 -4.37608651 -16.0994406 -4.07335244 0 0 Z " fill="#FDFDFE" transform="translate(155,3)"/>
<path d="M0 0 C3.625 0.375 3.625 0.375 5.8203125 1.73828125 C8.66609646 5.89608249 8.20469135 10.0198796 8.125 14.9375 C8.14046875 15.89591797 8.1559375 16.85433594 8.171875 17.84179688 C8.16671875 18.76154297 8.1615625 19.68128906 8.15625 20.62890625 C8.15173828 21.46752197 8.14722656 22.3061377 8.14257812 23.17016602 C7.625 25.375 7.625 25.375 5.81445312 27.14819336 C2.62678943 28.93432294 0.20965734 28.76605353 -3.375 28.375 C-5.3125 27.0625 -5.3125 27.0625 -6.375 25.375 C-6.375 24.385 -6.375 23.395 -6.375 22.375 C-9.29017292 23.44901108 -11.15310176 24.15310176 -13.375 26.375 C-13.64944329 29.21312215 -13.80016245 31.94853461 -13.8515625 34.79296875 C-13.86770599 35.64240555 -13.88384949 36.49184235 -13.90048218 37.36701965 C-13.92819557 39.17517929 -13.94962577 40.98344425 -13.96533203 42.79174805 C-13.98815678 44.61595961 -14.02871489 46.44004928 -14.08837891 48.26342773 C-14.57878676 63.25648351 -12.17641908 74.34952565 -1.6875 85.625 C5.75500904 92.208758 12.93755231 93.71047748 22.625 93.625 C23.5015625 93.63273437 24.378125 93.64046875 25.28125 93.6484375 C33.31479105 93.65466396 33.31479105 93.65466396 40.25 89.96875 C40.930625 89.17984375 40.930625 89.17984375 41.625 88.375 C43.63031039 86.59609562 45.65875701 84.84584622 47.6875 83.09375 C48.326875 82.5265625 48.96625 81.959375 49.625 81.375 C50.15867187 80.91222656 50.69234375 80.44945312 51.2421875 79.97265625 C53.02631112 77.91133828 53.79708665 75.85985499 54.75 73.3125 C56.60681818 68.41136364 56.60681818 68.41136364 57.625 66.375 C57.71211775 63.31257679 57.7404846 60.27313535 57.72265625 57.2109375 C57.7212413 56.30372955 57.71982635 55.39652161 57.71836853 54.46182251 C57.71276096 51.55784845 57.70020718 48.65395085 57.6875 45.75 C57.68248598 43.78385528 57.6779229 41.81770935 57.67382812 39.8515625 C57.66278906 35.0260121 57.64551935 30.20051903 57.625 25.375 C55.645 24.385 53.665 23.395 51.625 22.375 C51.356875 23.15875 51.08875 23.9425 50.8125 24.75 C49.625 27.375 49.625 27.375 46.625 29.375 C43.6875 29.8125 43.6875 29.8125 40.625 29.375 C38.15516248 27.20440138 36.8076325 25.43548064 36.24243164 22.15356445 C36.08637803 19.52832766 36.07950395 16.94179246 36.125 14.3125 C36.10179688 12.96575195 36.10179688 12.96575195 36.078125 11.59179688 C36.11673045 5.10125585 36.11673045 5.10125585 38.4375 1.78515625 C41.66581409 -0.29595337 43.87165067 -0.16119276 47.625 0.375 C50.0625 2.1875 50.0625 2.1875 51.625 4.375 C51.625 5.365 51.625 6.355 51.625 7.375 C52.615 7.436875 53.605 7.49875 54.625 7.5625 C60.66706148 8.44312435 65.55947162 11.871123 69.5 16.4375 C72.20634228 20.17862021 73.85694611 22.85217275 73.94726562 27.5065918 C73.96648071 28.31231125 73.9856958 29.1180307 74.00549316 29.94816589 C74.01399292 30.81476334 74.02249268 31.68136078 74.03125 32.57421875 C74.04265015 33.48267044 74.05405029 34.39112213 74.0657959 35.32710266 C74.08468717 37.25618859 74.09776045 39.18533893 74.10546875 41.11450195 C74.12463826 44.00789926 74.18657087 46.89830025 74.25 49.79101562 C74.38693871 62.13898612 72.6156411 72.06607929 67.625 83.375 C66.965 83.375 66.305 83.375 65.625 83.375 C65.37234375 84.10074219 65.1196875 84.82648438 64.859375 85.57421875 C60.32651188 95.85922779 50.48016429 101.930732 40.625 106.375 C37.29637318 107.37483784 34.08438284 108.05616287 30.625 108.375 C32.55263196 118.01315982 38.34315506 125.84381632 45.73046875 132.1328125 C47.70830715 133.42962201 49.31178292 133.95441508 51.625 134.375 C51.625 135.035 51.625 135.695 51.625 136.375 C65.40111709 139.59748353 75.73268511 137.56570203 87.625 130.375 C88.38941406 130.01019531 89.15382813 129.64539063 89.94140625 129.26953125 C92.21048441 128.06391896 92.63783606 126.70188644 93.625 124.375 C94.615 122.89 94.615 122.89 95.625 121.375 C96.285 121.375 96.945 121.375 97.625 121.375 C98.615 117.415 99.605 113.455 100.625 109.375 C101.285 109.375 101.945 109.375 102.625 109.375 C102.625 101.455 102.625 93.535 102.625 85.375 C100.975 85.045 99.325 84.715 97.625 84.375 C94.61875856 81.77870057 92.88772884 80.16318652 91.625 76.375 C90.965 76.375 90.305 76.375 89.625 76.375 C89.625 75.055 89.625 73.735 89.625 72.375 C88.965 72.375 88.305 72.375 87.625 72.375 C87.24337232 62.84844234 87.29389694 56.87160786 93.875 49.625 C98.3411457 45.38356603 102.41178927 44.51778779 108.5 44.125 C114.4361707 44.32095127 119.75733371 44.83936327 124.4375 48.6875 C125.159375 49.574375 125.88125 50.46125 126.625 51.375 C127.3675 52.24125 128.11 53.1075 128.875 54 C132.50911052 58.93200713 132.31807482 64.483864 131.625 70.375 C128.92854887 77.95295749 124.16053769 82.01797488 117.625 86.375 C117.16415215 88.79135415 117.16415215 88.79135415 117.21875 91.6171875 C117.18587891 93.21820313 117.18587891 93.21820313 117.15234375 94.8515625 C117.14332031 95.97304687 117.13429687 97.09453125 117.125 98.25 C116.95727848 118.37658228 116.95727848 118.37658228 111.625 126.375 C110.965 126.375 110.305 126.375 109.625 126.375 C109.38523438 127.09429687 109.14546875 127.81359375 108.8984375 128.5546875 C107.43823103 131.7886417 105.64932252 133.89342703 103.25 136.5 C102.47914063 137.34820312 101.70828125 138.19640625 100.9140625 139.0703125 C98.90516114 141.0929265 97.01087969 142.82164003 94.625 144.375 C93.965 144.375 93.305 144.375 92.625 144.375 C92.625 145.035 92.625 145.695 92.625 146.375 C86.125 149.375 86.125 149.375 81.625 149.375 C81.625 150.035 81.625 150.695 81.625 151.375 C77.49726103 153.43886948 72.16025144 152.6043147 67.625 152.625 C65.97564453 152.6559375 65.97564453 152.6559375 64.29296875 152.6875 C57.22021979 152.7210599 51.25808045 151.85679026 44.625 149.375 C44.625 148.715 44.625 148.055 44.625 147.375 C43.91085938 147.29121094 43.19671875 147.20742187 42.4609375 147.12109375 C33.04118513 144.64289444 26.54014914 135.20432226 21.625 127.375 C20.861875 126.34375 20.09875 125.3125 19.3125 124.25 C16.40585061 119.29793066 15.26590638 114.12049793 15.625 108.375 C13.830625 108.4678125 13.830625 108.4678125 12 108.5625 C7.8089625 108.5551473 5.27986117 107.50700235 1.625 105.375 C1.02042969 105.10816406 0.41585937 104.84132813 -0.20703125 104.56640625 C-12.32165201 99.19009526 -20.33646012 88.85769205 -25.25 76.8125 C-28.28741427 68.91723442 -28.53146944 60.80369686 -28.578125 52.4296875 C-28.58382507 51.61557404 -28.58952515 50.80146057 -28.59539795 49.962677 C-28.60476726 48.2568692 -28.6113494 46.55104395 -28.61523438 44.84521484 C-28.62500242 42.24935598 -28.65612639 39.65426973 -28.6875 37.05859375 C-28.6940262 35.39062964 -28.69927817 33.72265995 -28.703125 32.0546875 C-28.7154718 31.28784637 -28.7278186 30.52100525 -28.74053955 29.73092651 C-28.71520156 23.55738363 -27.44522662 18.89003435 -23.4296875 14.01171875 C-18.83434656 9.90226511 -15.45228767 7.49319922 -9.22265625 6.921875 C-7.18144724 6.54647808 -7.18144724 6.54647808 -6.24609375 4.453125 C-5.95863281 3.76734375 -5.67117187 3.0815625 -5.375 2.375 C-3.375 0.375 -3.375 0.375 0 0 Z " fill="#2C68EB" transform="translate(90.375,54.625)"/>
<path d="M0 0 C2.4375 1 2.4375 1 4 3 C4.56111226 5.77663799 4.56111226 8.22336201 4 11 C2.4375 13 2.4375 13 0 14 C-3.39844421 14.35773097 -5.85873258 14.58904125 -8.9375 13 C-10.65886567 9.75978228 -10.52960415 6.58042244 -10 3 C-7.82867609 -1.08719794 -4.198293 -0.44192558 0 0 Z " fill="#ECF1FD" transform="translate(203,113)"/>
<path d="M0 0 C1.670625 0.061875 1.670625 0.061875 3.375 0.125 C3.375 0.455 3.375 0.785 3.375 1.125 C2.01375 1.558125 2.01375 1.558125 0.625 2 C-3.13892586 3.28207036 -3.13892586 3.28207036 -6.625 5.125 C-6.955 6.115 -7.285 7.105 -7.625 8.125 C-9.275 8.125 -10.925 8.125 -12.625 8.125 C-11.965 7.465 -11.305 6.805 -10.625 6.125 C-9.635 6.125 -8.645 6.125 -7.625 6.125 C-7.33625 5.50625 -7.0475 4.8875 -6.75 4.25 C-4.83385794 0.63062055 -4.21752185 0.14543179 0 0 Z " fill="#789EF2" transform="translate(90.625,54.875)"/>
<path d="M0 0 C-1.44077046 3.36179774 -3.24750021 5.59156268 -6 8 C-6.66 8 -7.32 8 -8 8 C-6.48291727 4.46014029 -4.24676932 0 0 0 Z " fill="#5082EE" transform="translate(73,65)"/>
</svg>
